<svg width="16" height="16" viewBox="0 0 16 16" fill="none" xmlns="http://www.w3.org/2000/svg">
<path d="M10.0691 9.48272L8.88796 8.2932L13.6293 3.56021L12.4398 2.37068L7.70681 7.11204L6.51728 5.93089L11.2586 1.18953L10.0691 0L4.74136 5.33613C4.27074 5.80733 4.0064 6.44607 4.0064 7.11204C4.0064 7.77801 4.27074 8.41675 4.74136 8.88796L5.33613 9.48272L0 14.8105L1.18953 16L6.51728 10.6639L7.11204 11.2586C7.58325 11.7293 8.22199 11.9936 8.88796 11.9936C9.55393 11.9936 10.1927 11.7293 10.6639 11.2586L16 5.93089L14.8105 4.74136L10.0691 9.48272Z" fill="#2FAA52"/>
</svg>
