<svg width="16" height="16" viewBox="0 0 16 16" fill="none" xmlns="http://www.w3.org/2000/svg">
<path d="M5.93089 9.48272L7.11204 8.29319L2.37068 3.56021L3.56021 2.37068L8.29319 7.11204L9.48272 5.93089L4.74136 1.18953L5.93089 0L11.2586 5.33613C11.7293 5.80733 11.9936 6.44607 11.9936 7.11204C11.9936 7.77801 11.7293 8.41675 11.2586 8.88796L10.6639 9.48272L16 14.8105L14.8105 16L9.48272 10.6639L8.88796 11.2586C8.41675 11.7293 7.77801 11.9936 7.11204 11.9936C6.44607 11.9936 5.80733 11.7293 5.33612 11.2586L9.53674e-07 5.93089L1.18953 4.74136L5.93089 9.48272Z" fill="#2FAA52"/>
</svg>
