<svg width="18" height="17" viewBox="0 0 18 17" fill="none" xmlns="http://www.w3.org/2000/svg">
<path d="M5.29839 9.66096L7.79224 7.16711L1.60608 0.989761C0.945913 1.65183 0.575195 2.54865 0.575195 3.48361C0.575195 4.41858 0.945913 5.31539 1.60608 5.97746L5.29839 9.66096ZM11.2731 8.06595C12.6213 8.69162 14.5159 8.25101 15.9171 6.84987C17.6002 5.16674 17.9263 2.7522 16.6309 1.45681C15.3443 0.170227 12.9297 0.487466 11.2378 2.1706C9.83667 3.57173 9.39606 5.46636 10.0217 6.81462L1.42102 15.4153L2.66354 16.6578L8.73514 10.6039L14.7979 16.6667L16.0405 15.4241L9.97766 9.36135L11.2731 8.06595Z" fill="#DEE1E6"/>
</svg>
