<svg width="49" height="48" viewBox="0 0 49 48" fill="none" xmlns="http://www.w3.org/2000/svg">
<path d="M12 15.9444C12 15.5614 12.1522 15.194 12.4231 14.9231C12.694 14.6522 13.0614 14.5 13.4444 14.5H36.5556C36.9386 14.5 37.306 14.6522 37.5769 14.9231C37.8478 15.194 38 15.5614 38 15.9444C38 16.3275 37.8478 16.6949 37.5769 16.9658C37.306 17.2367 36.9386 17.3889 36.5556 17.3889H13.4444C13.0614 17.3889 12.694 17.2367 12.4231 16.9658C12.1522 16.6949 12 16.3275 12 15.9444ZM12 33.2778C12 32.8947 12.1522 32.5273 12.4231 32.2564C12.694 31.9855 13.0614 31.8333 13.4444 31.8333H36.5556C36.9386 31.8333 37.306 31.9855 37.5769 32.2564C37.8478 32.5273 38 32.8947 38 33.2778C38 33.6609 37.8478 34.0283 37.5769 34.2992C37.306 34.57 36.9386 34.7222 36.5556 34.7222H13.4444C13.0614 34.7222 12.694 34.57 12.4231 34.2992C12.1522 34.0283 12 33.6609 12 33.2778ZM12 24.6111C12 24.228 12.1522 23.8606 12.4231 23.5897C12.694 23.3188 13.0614 23.1667 13.4444 23.1667H36.5556C36.9386 23.1667 37.306 23.3188 37.5769 23.5897C37.8478 23.8606 38 24.228 38 24.6111C38 24.9942 37.8478 25.3616 37.5769 25.6325C37.306 25.9034 36.9386 26.0556 36.5556 26.0556H22.4896L18.6661 29.8804L14.8412 26.0556H13.4444C13.0614 26.0556 12.694 25.9034 12.4231 25.6325C12.1522 25.3616 12 24.9942 12 24.6111Z" fill="white"/>
</svg>
