<svg width="11" height="10" viewBox="0 0 11 10" fill="none" xmlns="http://www.w3.org/2000/svg">
<path d="M5.53822 8.3776L2.92808 9.90636C2.81277 9.97771 2.69223 10.0083 2.56644 9.99809C2.44065 9.9879 2.33058 9.94713 2.23624 9.87579C2.1419 9.80445 2.06852 9.71517 2.01611 9.60795C1.96369 9.50073 1.95321 9.38108 1.98466 9.249L2.6765 6.35964L0.365118 4.41812C0.260293 4.32639 0.194883 4.22182 0.168886 4.10441C0.14289 3.98701 0.150647 3.87245 0.192157 3.76075C0.234087 3.64864 0.296982 3.55691 0.380842 3.48557C0.464702 3.41423 0.580009 3.36837 0.726763 3.34798L3.77716 3.0881L4.95644 0.366903C5.00885 0.244602 5.0902 0.152876 5.20047 0.0917257C5.31075 0.0305753 5.42333 0 5.53822 0C5.65352 0 5.76611 0.0305753 5.87596 0.0917257C5.98582 0.152876 6.06716 0.244602 6.11999 0.366903L7.29927 3.0881L10.3497 3.34798C10.4964 3.36837 10.6117 3.41423 10.6956 3.48557C10.7795 3.55691 10.8423 3.64864 10.8843 3.76075C10.9262 3.87286 10.9342 3.98762 10.9082 4.10503C10.8822 4.22243 10.8166 4.3268 10.7113 4.41812L8.39993 6.35964L9.09177 9.249C9.12322 9.38149 9.11274 9.50134 9.06033 9.60856C9.00791 9.71578 8.93454 9.80486 8.84019 9.87579C8.74585 9.94713 8.63579 9.9879 8.51 9.99809C8.38421 10.0083 8.26366 9.97771 8.14835 9.90636L5.53822 8.3776Z" fill="#DEE1E6"/>
</svg>
