<svg width="12" height="10" viewBox="0 0 12 10" fill="none" xmlns="http://www.w3.org/2000/svg">
<path d="M5.76899 8.3776L3.15886 9.90636C3.04355 9.97771 2.923 10.0083 2.79721 9.99809C2.67142 9.9879 2.56135 9.94713 2.46701 9.87579C2.37267 9.80445 2.29929 9.71517 2.24688 9.60795C2.19447 9.50073 2.18399 9.38108 2.21543 9.249L2.90728 6.35964L0.595892 4.41812C0.491067 4.32639 0.425657 4.22182 0.39966 4.10441C0.373664 3.98701 0.381421 3.87245 0.422931 3.76075C0.464861 3.64864 0.527756 3.55691 0.611616 3.48557C0.695475 3.41423 0.810783 3.36837 0.957537 3.34798L4.00794 3.0881L5.18721 0.366903C5.23963 0.244602 5.32097 0.152876 5.43125 0.0917257C5.54152 0.0305753 5.6541 0 5.76899 0C5.8843 0 5.99688 0.0305753 6.10674 0.0917257C6.21659 0.152876 6.29794 0.244602 6.35077 0.366903L7.53005 3.0881L10.5804 3.34798C10.7272 3.36837 10.8425 3.41423 10.9264 3.48557C11.0102 3.55691 11.0731 3.64864 11.115 3.76075C11.157 3.87286 11.1649 3.98762 11.1389 4.10503C11.113 4.22243 11.0473 4.3268 10.9421 4.41812L8.6307 6.35964L9.32255 9.249C9.354 9.38149 9.34351 9.50134 9.2911 9.60856C9.23869 9.71578 9.16531 9.80486 9.07097 9.87579C8.97663 9.94713 8.86656 9.9879 8.74077 9.99809C8.61498 10.0083 8.49443 9.97771 8.37913 9.90636L5.76899 8.3776Z" fill="#FFD233"/>
</svg>
